mtllib ItmToonLinkBomb.mtl

v 0.000000 3.115112 0.000000
v 1.892578 3.358398 0.000000
v 1.531128 3.358398 -1.112427
v 1.531128 3.358398 1.112427
v 0.584839 3.358398 1.799927
v -0.584839 3.358398 1.799927
v -1.531128 3.358398 1.112427
v -1.892578 3.358398 0.000000
v -1.531128 3.358398 -1.112427
v -0.584839 3.358398 -1.799927
v 0.584839 3.358398 -1.799927

vt 0.623840 0.744690
vt 0.735046 0.744690
vt 0.713806 0.876251
vt 0.713806 0.613159
vt 0.658203 0.531860
vt 0.589478 0.531860
vt 0.533875 0.613159
vt 0.512665 0.744690
vt 0.533875 0.876251
vt 0.589478 0.957550
vt 0.658203 0.957550

vn 0.000000 1.000000 0.000000
vn -0.127505 0.991838 0.000000
vn -0.103151 0.991838 0.074952
vn -0.103151 0.991838 -0.074952
vn -0.039369 0.991845 -0.121219
vn 0.039369 0.991845 -0.121219
vn 0.103151 0.991838 -0.074952
vn 0.127505 0.991838 0.000000
vn 0.103151 0.991838 0.074952
vn 0.039369 0.991845 0.121219
vn -0.039369 0.991845 0.121219

g polygon0
s 1
usemtl mat2
f 1/1/1 2/2/2 3/3/3
f 1/1/1 4/4/4 2/2/2
f 5/5/5 4/4/4 1/1/1
f 1/1/1 6/6/6 5/5/5
f 1/1/1 7/7/7 6/6/6
f 8/8/8 7/7/7 1/1/1
f 1/1/1 9/9/9 8/8/8
f 1/1/1 10/10/10 9/9/9
f 11/11/11 10/10/10 1/1/1
f 3/3/3 11/11/11 1/1/1

v 0.000000 2.875000 0.000000
v 0.888428 2.734253 0.000000
v 0.718750 2.734253 -0.522217
v 0.718750 2.734253 0.522217
v 0.274536 2.734253 0.844971
v 1.367188 2.325928 0.993286
v 0.522217 2.325928 1.607178
v 1.881714 1.689941 1.367188
v 0.718750 1.689941 2.212036
v 2.212036 0.888428 1.607178
v 0.844971 0.888428 2.600464
v 2.325928 0.000000 1.689941
v 0.888428 0.000000 2.734253
v 2.212036 -0.888428 1.607178
v 0.844971 -0.888428 2.600464
v 1.881714 -1.689941 1.367188
v 0.718750 -1.689941 2.212036
v 1.367188 -2.325928 0.993286
v 0.522217 -2.325928 1.607178
v 0.718750 -2.734253 0.522217
v 0.274536 -2.734253 0.844971
v 0.000000 -2.875000 0.000000
v -0.274536 -2.734253 0.844971
v -0.718750 -2.734253 0.522217
v -1.367188 -2.325928 0.993286
v -1.689941 -2.325928 0.000000
v -2.325928 -1.689941 0.000000
v -1.881714 -1.689941 -1.367188
v -2.212036 -0.888428 -1.607178
v -0.844971 -0.888428 -2.600464
v -0.888428 0.000000 -2.734253
v 0.888428 0.000000 -2.734253
v 0.844971 0.888428 -2.600464
v 2.212036 0.888428 -1.607178
v 1.881714 1.689941 -1.367188
v 2.325928 1.689941 0.000000
v 1.689941 2.325928 0.000000
v 1.367188 2.325928 -0.993286
v 0.718750 1.689941 -2.212036
v -0.844971 0.888428 -2.600464
v -2.325928 0.000000 -1.689941
v -2.734253 -0.888428 0.000000
v -1.881714 -1.689941 1.367188
v -0.522217 -2.325928 1.607178
v 0.522217 2.325928 -1.607178
v -0.718750 1.689941 -2.212036
v -2.212036 0.888428 -1.607178
v -2.875000 0.000000 0.000000
v -2.212036 -0.888428 1.607178
v -0.718750 -1.689941 2.212036
v 2.734253 0.888428 0.000000
v 2.875000 0.000000 0.000000
v 2.734253 -0.888428 0.000000
v 2.325928 -1.689941 0.000000
v 1.689941 -2.325928 0.000000
v 0.888428 -2.734253 0.000000
v -0.844971 -0.888428 2.600464
v -0.888428 0.000000 2.734253
v -0.844971 0.888428 2.600464
v -0.718750 1.689941 2.212036
v -0.522217 2.325928 1.607178
v -0.274536 2.734253 0.844971
v 2.325928 0.000000 -1.689941
v 2.212036 -0.888428 -1.607178
v 1.881714 -1.689941 -1.367188
v 1.367188 -2.325928 -0.993286
v 0.718750 -2.734253 -0.522217
v -2.325928 0.000000 1.689941
v -2.212036 0.888428 1.607178
v -1.881714 1.689941 1.367188
v -1.367188 2.325928 0.993286
v -0.718750 2.734253 0.522217
v 0.844971 -0.888428 -2.600464
v 0.718750 -1.689941 -2.212036
v 0.522217 -2.325928 -1.607178
v 0.274536 -2.734253 -0.844971
v -2.734253 0.888428 0.000000
v -2.325928 1.689941 0.000000
v -1.689941 2.325928 0.000000
v -0.888428 2.734253 0.000000
v -0.718750 -1.689941 -2.212036
v -0.522217 -2.325928 -1.607178
v -0.274536 -2.734253 -0.844971
v -1.881714 1.689941 -1.367188
v -1.367188 2.325928 -0.993286
v -0.718750 2.734253 -0.522217
v -1.367188 -2.325928 -0.993286
v -0.718750 -2.734253 -0.522217
v -0.522217 2.325928 -1.607178
v -0.274536 2.734253 -0.844971
v 0.274536 2.734253 -0.844971
v -0.888428 -2.734253 0.000000

vt 0.878662 0.982788
vt 0.910522 0.959808
vt 0.904419 0.959808
vt 0.904419 0.959808
vt 0.888519 0.959808
vt 0.927673 0.881073
vt 0.897369 0.881073
vt 0.946106 0.765503
vt 0.904419 0.765503
vt 0.957947 0.634583
vt 0.908936 0.634583
vt 0.962036 0.525787
vt 0.910522 0.525787
vt 0.957947 0.354858
vt 0.908936 0.354858
vt 0.946106 0.207520
vt 0.904419 0.207520
vt 0.927673 0.103638
vt 0.897369 0.103638
vt 0.904419 0.045380
vt 0.888519 0.045380
vt 0.878662 0.022400
vt 0.868835 0.045380
vt 0.852905 0.045380
vt 0.829651 0.103638
vt 0.818085 0.103638
vt 0.795288 0.207520
vt 0.811218 0.207520
vt 0.799377 0.354858
vt 0.848389 0.354858
vt 0.846832 0.525787
vt 0.910522 0.525787
vt 0.908936 0.634583
vt 0.957947 0.634583
vt 0.946106 0.765503
vt 0.962036 0.765503
vt 0.939240 0.881073
vt 0.927673 0.881073
vt 0.904419 0.765503
vt 0.848389 0.634583
vt 0.795288 0.525787
vt 0.780670 0.354858
vt 0.811218 0.207520
vt 0.859955 0.103638
vt 0.897369 0.881073
vt 0.852905 0.765503
vt 0.799377 0.634583
vt 0.775635 0.525787
vt 0.799377 0.354858
vt 0.852905 0.207520
vt 0.976654 0.634583
vt 0.981720 0.525787
vt 0.976654 0.354858
vt 0.962036 0.207520
vt 0.939240 0.103638
vt 0.910522 0.045380
vt 0.848389 0.354858
vt 0.846832 0.525787
vt 0.848389 0.634583
vt 0.852905 0.765503
vt 0.859955 0.881073
vt 0.868835 0.959808
vt 0.962036 0.525787
vt 0.957947 0.354858
vt 0.946106 0.207520
vt 0.927673 0.103638
vt 0.904419 0.045380
vt 0.795288 0.525787
vt 0.799377 0.634583
vt 0.811218 0.765503
vt 0.829651 0.881073
vt 0.852905 0.959808
vt 0.908936 0.354858
vt 0.904419 0.207520
vt 0.897369 0.103638
vt 0.888519 0.045380
vt 0.780670 0.634583
vt 0.795288 0.765503
vt 0.818085 0.881073
vt 0.846832 0.959808
vt 0.852905 0.207520
vt 0.859955 0.103638
vt 0.868835 0.045380
vt 0.811218 0.765503
vt 0.829651 0.881073
vt 0.852905 0.959808
vt 0.829651 0.103638
vt 0.852905 0.045380
vt 0.859955 0.881073
vt 0.868835 0.959808
vt 0.888519 0.959808
vt 0.846832 0.045380

vn 0.000000 1.000000 0.000000
vn 0.308288 0.951293 0.000000
vn 0.249448 0.951283 -0.181211
vn 0.249448 0.951283 0.181211
vn 0.095275 0.951289 0.293211
vn 0.474747 0.809719 0.344921
vn 0.181339 0.809706 0.558115
vn 0.653924 0.588739 0.475153
vn 0.249807 0.588721 0.768768
vn 0.769231 0.309695 0.558903
vn 0.293824 0.309693 0.904299
vn 0.809026 0.000000 0.587772
vn 0.309023 0.000000 0.951055
vn 0.769231 -0.309695 0.558903
vn 0.293824 -0.309693 0.904299
vn 0.653924 -0.588739 0.475153
vn 0.249807 -0.588721 0.768768
vn 0.474747 -0.809719 0.344921
vn 0.181339 -0.809706 0.558115
vn 0.249448 -0.951283 0.181211
vn 0.095275 -0.951289 0.293211
vn 0.000000 -1.000000 0.000000
vn -0.095275 -0.951289 0.293211
vn -0.249448 -0.951283 0.181211
vn -0.474747 -0.809719 0.344921
vn -0.586854 -0.809693 0.000000
vn -0.808329 -0.588730 0.000000
vn -0.653924 -0.588739 -0.475153
vn -0.769231 -0.309695 -0.558903
vn -0.293824 -0.309693 -0.904299
vn -0.309023 0.000000 -0.951055
vn 0.309023 0.000000 -0.951055
vn 0.293824 0.309693 -0.904299
vn 0.769231 0.309695 -0.558903
vn 0.653924 0.588739 -0.475153
vn 0.808329 0.588730 0.000000
vn 0.586854 0.809693 0.000000
vn 0.474747 0.809719 -0.344921
vn 0.249807 0.588721 -0.768768
vn -0.293824 0.309693 -0.904299
vn -0.809026 0.000000 -0.587772
vn -0.950840 -0.309684 0.000000
vn -0.653924 -0.588739 0.475153
vn -0.181339 -0.809706 0.558115
vn 0.181339 0.809706 -0.558115
vn -0.249807 0.588721 -0.768768
vn -0.769231 0.309695 -0.558903
vn -1.000000 0.000000 0.000000
vn -0.769231 -0.309695 0.558903
vn -0.249807 -0.588721 0.768768
vn 0.950840 0.309684 0.000000
vn 1.000000 0.000000 0.000000
vn 0.950840 -0.309684 0.000000
vn 0.808329 -0.588730 0.000000
vn 0.586854 -0.809693 0.000000
vn 0.308288 -0.951293 0.000000
vn -0.293824 -0.309693 0.904299
vn -0.309023 0.000000 0.951055
vn -0.293824 0.309693 0.904299
vn -0.249807 0.588721 0.768768
vn -0.181339 0.809706 0.558115
vn -0.095275 0.951289 0.293211
vn 0.809026 0.000000 -0.587772
vn 0.769231 -0.309695 -0.558903
vn 0.653924 -0.588739 -0.475153
vn 0.474747 -0.809719 -0.344921
vn 0.249448 -0.951283 -0.181211
vn -0.809026 0.000000 0.587772
vn -0.769231 0.309695 0.558903
vn -0.653924 0.588739 0.475153
vn -0.474747 0.809719 0.344921
vn -0.249448 0.951283 0.181211
vn 0.293824 -0.309693 -0.904299
vn 0.249807 -0.588721 -0.768768
vn 0.181339 -0.809706 -0.558115
vn 0.095275 -0.951289 -0.293211
vn -0.950840 0.309684 0.000000
vn -0.808329 0.588730 0.000000
vn -0.586854 0.809693 0.000000
vn -0.308288 0.951293 0.000000
vn -0.249807 -0.588721 -0.768768
vn -0.181339 -0.809706 -0.558115
vn -0.095275 -0.951289 -0.293211
vn -0.653924 0.588739 -0.475153
vn -0.474747 0.809719 -0.344921
vn -0.249448 0.951283 -0.181211
vn -0.474747 -0.809719 -0.344921
vn -0.249448 -0.951283 -0.181211
vn -0.181339 0.809706 -0.558115
vn -0.095275 0.951289 -0.293211
vn 0.095275 0.951289 -0.293211
vn -0.308288 -0.951293 0.000000

g polygon1
s 1
usemtl mat1
f 12/12/12 13/13/13 14/14/14
f 12/12/12 15/15/15 13/13/13
f 16/16/16 15/15/15 12/12/12
f 16/16/16 17/17/17 15/15/15
f 18/18/18 17/17/17 16/16/16
f 18/18/18 19/19/19 17/17/17
f 20/20/20 19/19/19 18/18/18
f 20/20/20 21/21/21 19/19/19
f 22/22/22 21/21/21 20/20/20
f 22/22/22 23/23/23 21/21/21
f 24/24/24 23/23/23 22/22/22
f 24/24/24 25/25/25 23/23/23
f 26/26/26 25/25/25 24/24/24
f 26/26/26 27/27/27 25/25/25
f 28/28/28 27/27/27 26/26/26
f 28/28/28 29/29/29 27/27/27
f 30/30/30 29/29/29 28/28/28
f 30/30/30 31/31/31 29/29/29
f 32/32/32 31/31/31 30/30/30
f 32/32/32 33/33/33 31/31/31
f 34/34/34 33/33/33 32/32/32
f 34/34/34 35/35/35 33/33/33
f 36/36/36 35/35/35 34/34/34
f 36/36/36 37/37/37 35/35/35
f 38/38/38 37/37/37 36/36/36
f 38/38/38 39/39/39 37/37/37
f 40/40/40 39/39/39 38/38/38
f 40/40/40 41/41/41 39/39/39
f 42/42/42 41/41/41 40/40/40
f 42/42/42 43/43/43 41/41/41
f 44/44/44 43/43/43 42/42/42
f 44/44/44 45/45/45 43/43/43
f 46/46/46 45/45/45 44/44/44
f 46/46/46 47/47/47 45/45/45
f 48/48/48 47/47/47 46/46/46
f 48/48/48 17/17/17 47/47/47
f 15/15/15 17/17/17 48/48/48
f 48/48/48 13/13/13 15/15/15
f 48/48/48 49/49/49 13/13/13
f 46/46/46 49/49/49 48/48/48
f 46/46/46 50/50/50 49/49/49
f 44/44/44 50/50/50 46/46/46
f 44/44/44 51/51/51 50/50/50
f 42/42/42 51/51/51 44/44/44
f 42/42/42 52/52/52 51/51/51
f 40/40/40 52/52/52 42/42/42
f 40/40/40 53/53/53 52/52/52
f 38/38/38 53/53/53 40/40/40
f 38/38/38 54/54/54 53/53/53
f 36/36/36 54/54/54 38/38/38
f 36/36/36 55/55/55 54/54/54
f 34/34/34 55/55/55 36/36/36
f 34/34/34 32/32/32 55/55/55
f 49/49/49 14/14/14 13/13/13
f 49/49/49 56/56/56 14/14/14
f 50/50/50 56/56/56 49/49/49
f 50/50/50 57/57/57 56/56/56
f 51/51/51 57/57/57 50/50/50
f 51/51/51 58/58/58 57/57/57
f 52/52/52 58/58/58 51/51/51
f 52/52/52 59/59/59 58/58/58
f 53/53/53 59/59/59 52/52/52
f 53/53/53 60/60/60 59/59/59
f 54/54/54 60/60/60 53/53/53
f 54/54/54 61/61/61 60/60/60
f 55/55/55 61/61/61 54/54/54
f 55/55/55 30/30/30 61/61/61
f 32/32/32 30/30/30 55/55/55
f 19/19/19 47/47/47 17/17/17
f 19/19/19 62/62/62 47/47/47
f 21/21/21 62/62/62 19/19/19
f 21/21/21 63/63/63 62/62/62
f 23/23/23 63/63/63 21/21/21
f 23/23/23 64/64/64 63/63/63
f 25/25/25 64/64/64 23/23/23
f 25/25/25 65/65/65 64/64/64
f 27/27/27 65/65/65 25/25/25
f 27/27/27 66/66/66 65/65/65
f 29/29/29 66/66/66 27/27/27
f 29/29/29 67/67/67 66/66/66
f 31/31/31 67/67/67 29/29/29
f 31/31/31 33/33/33 67/67/67
f 28/28/28 61/61/61 30/30/30
f 28/28/28 68/68/68 61/61/61
f 26/26/26 68/68/68 28/28/28
f 26/26/26 69/69/69 68/68/68
f 24/24/24 69/69/69 26/26/26
f 24/24/24 70/70/70 69/69/69
f 22/22/22 70/70/70 24/24/24
f 22/22/22 71/71/71 70/70/70
f 20/20/20 71/71/71 22/22/22
f 20/20/20 72/72/72 71/71/71
f 18/18/18 72/72/72 20/20/20
f 18/18/18 73/73/73 72/72/72
f 16/16/16 73/73/73 18/18/18
f 16/16/16 12/12/12 73/73/73
f 62/62/62 45/45/45 47/47/47
f 62/62/62 74/74/74 45/45/45
f 63/63/63 74/74/74 62/62/62
f 63/63/63 75/75/75 74/74/74
f 64/64/64 75/75/75 63/63/63
f 64/64/64 76/76/76 75/75/75
f 65/65/65 76/76/76 64/64/64
f 65/65/65 77/77/77 76/76/76
f 66/66/66 77/77/77 65/65/65
f 66/66/66 78/78/78 77/77/77
f 67/67/67 78/78/78 66/66/66
f 67/67/67 33/33/33 78/78/78
f 68/68/68 60/60/60 61/61/61
f 68/68/68 79/79/79 60/60/60
f 69/69/69 79/79/79 68/68/68
f 69/69/69 80/80/80 79/79/79
f 70/70/70 80/80/80 69/69/69
f 70/70/70 81/81/81 80/80/80
f 71/71/71 81/81/81 70/70/70
f 71/71/71 82/82/82 81/81/81
f 72/72/72 82/82/82 71/71/71
f 72/72/72 83/83/83 82/82/82
f 73/73/73 83/83/83 72/72/72
f 73/73/73 12/12/12 83/83/83
f 74/74/74 43/43/43 45/45/45
f 74/74/74 84/84/84 43/43/43
f 75/75/75 84/84/84 74/74/74
f 75/75/75 85/85/85 84/84/84
f 76/76/76 85/85/85 75/75/75
f 76/76/76 86/86/86 85/85/85
f 77/77/77 86/86/86 76/76/76
f 77/77/77 87/87/87 86/86/86
f 78/78/78 87/87/87 77/77/77
f 78/78/78 33/33/33 87/87/87
f 79/79/79 59/59/59 60/60/60
f 79/79/79 88/88/88 59/59/59
f 80/80/80 88/88/88 79/79/79
f 80/80/80 89/89/89 88/88/88
f 81/81/81 89/89/89 80/80/80
f 81/81/81 90/90/90 89/89/89
f 82/82/82 90/90/90 81/81/81
f 82/82/82 91/91/91 90/90/90
f 83/83/83 91/91/91 82/82/82
f 83/83/83 12/12/12 91/91/91
f 84/84/84 41/41/41 43/43/43
f 84/84/84 92/92/92 41/41/41
f 85/85/85 92/92/92 84/84/84
f 85/85/85 93/93/93 92/92/92
f 86/86/86 93/93/93 85/85/85
f 86/86/86 94/94/94 93/93/93
f 87/87/87 94/94/94 86/86/86
f 87/87/87 33/33/33 94/94/94
f 88/88/88 58/58/58 59/59/59
f 88/88/88 95/95/95 58/58/58
f 89/89/89 95/95/95 88/88/88
f 89/89/89 96/96/96 95/95/95
f 90/90/90 96/96/96 89/89/89
f 90/90/90 97/97/97 96/96/96
f 91/91/91 97/97/97 90/90/90
f 91/91/91 12/12/12 97/97/97
f 92/92/92 39/39/39 41/41/41
f 92/92/92 98/98/98 39/39/39
f 93/93/93 98/98/98 92/92/92
f 93/93/93 99/99/99 98/98/98
f 94/94/94 99/99/99 93/93/93
f 94/94/94 33/33/33 99/99/99
f 95/95/95 57/57/57 58/58/58
f 95/95/95 100/100/100 57/57/57
f 96/96/96 100/100/100 95/95/95
f 96/96/96 101/101/101 100/100/100
f 97/97/97 101/101/101 96/96/96
f 97/97/97 12/12/12 101/101/101
f 100/100/100 56/56/56 57/57/57
f 100/100/100 102/102/102 56/56/56
f 101/101/101 102/102/102 100/100/100
f 101/101/101 12/12/12 102/102/102
f 98/98/98 37/37/37 39/39/39
f 98/98/98 103/103/103 37/37/37
f 99/99/99 103/103/103 98/98/98
f 99/99/99 33/33/33 103/103/103
f 14/14/14 102/102/102 12/12/12
f 14/14/14 56/56/56 102/102/102
f 35/35/35 103/103/103 33/33/33
f 35/35/35 37/37/37 103/103/103

v 1.367188 2.325928 -0.993286
v 1.892578 3.358398 0.000000
v 1.689941 2.325928 0.000000
v 1.531128 3.358398 -1.112427
v 0.522217 2.325928 -1.607178
v 0.584839 3.358398 -1.799927
v -0.522217 2.325928 -1.607178
v -0.584839 3.358398 -1.799927
v -1.367188 2.325928 -0.993286
v -1.531128 3.358398 -1.112427
v -1.689941 2.325928 0.000000
v -1.892578 3.358398 0.000000
v -1.367188 2.325928 0.993286
v -1.531128 3.358398 1.112427
v -0.522217 2.325928 1.607178
v -0.584839 3.358398 1.799927
v 0.522217 2.325928 1.607178
v 0.584839 3.358398 1.799927
v 1.367188 2.325928 0.993286
v 1.531128 3.358398 1.112427

vt 0.687500 0.023438
vt 0.726563 0.492188
vt 0.726563 0.023438
vt 0.687500 0.492188
vt 0.648438 0.023438
vt 0.648438 0.492188
vt 0.601563 0.023438
vt 0.601563 0.492188
vt 0.562500 0.023438
vt 0.562500 0.492188
vt 0.523438 0.023438
vt 0.523438 0.492188
vt 0.562500 0.023438
vt 0.562500 0.492188
vt 0.601563 0.023438
vt 0.601563 0.492188
vt 0.648438 0.023438
vt 0.648438 0.492188
vt 0.687500 0.023438
vt 0.687500 0.492188

vn 0.795130 -0.187089 -0.576859
vn 0.982339 -0.187112 0.000000
vn 0.982339 -0.187112 0.000000
vn 0.795130 -0.187089 -0.576859
vn 0.296549 -0.187294 -0.936472
vn 0.296549 -0.187294 -0.936472
vn -0.296549 -0.187294 -0.936472
vn -0.296549 -0.187294 -0.936472
vn -0.795130 -0.187089 -0.576859
vn -0.795130 -0.187089 -0.576859
vn -0.982339 -0.187112 0.000000
vn -0.982339 -0.187112 0.000000
vn -0.795130 -0.187089 0.576859
vn -0.795130 -0.187089 0.576859
vn -0.296549 -0.187294 0.936472
vn -0.296549 -0.187294 0.936472
vn 0.296549 -0.187294 0.936472
vn 0.296549 -0.187294 0.936472
vn 0.795130 -0.187089 0.576859
vn 0.795130 -0.187089 0.576859

g polygon2
s 1
usemtl mat2
f 104/104/104 105/105/105 106/106/106
f 104/104/104 107/107/107 105/105/105
f 108/108/108 107/107/107 104/104/104
f 108/108/108 109/109/109 107/107/107
f 110/110/110 109/109/109 108/108/108
f 110/110/110 111/111/111 109/109/109
f 112/112/112 111/111/111 110/110/110
f 112/112/112 113/113/113 111/111/111
f 114/114/114 113/113/113 112/112/112
f 114/114/114 115/115/115 113/113/113
f 116/116/116 115/115/115 114/114/114
f 116/116/116 117/117/117 115/115/115
f 118/118/118 117/117/117 116/116/116
f 118/118/118 119/119/119 117/117/117
f 120/120/120 119/119/119 118/118/118
f 120/120/120 121/121/121 119/119/119
f 122/122/122 121/121/121 120/120/120
f 122/122/122 123/123/123 121/121/121
f 106/106/106 123/123/123 122/122/122
f 106/106/106 105/105/105 123/123/123

v 0.000000 4.670559 -0.399582
v 0.000000 5.937329 0.081253
v 0.595093 5.417140 0.547073
v -0.595093 5.417140 0.547073
v -0.380371 4.378650 -0.080978
v 0.000000 4.896952 1.013016
v 0.000000 4.086569 0.237625
v 0.380371 4.378650 -0.080978
v 0.000000 2.796646 0.427689
v 0.451538 2.794417 -0.023849
v 0.000000 2.792187 -0.475266
v -0.451538 2.794417 -0.023849

vt 0.483185 0.599487
vt 0.483185 0.972443
vt 0.252136 0.965637
vt 0.252136 0.965637
vt 0.252136 0.575806
vt 0.016388 0.958832
vt 0.016388 0.594238
vt 0.252136 0.575806
vt 0.016388 0.165741
vt 0.252136 0.085052
vt 0.483185 0.027557
vt 0.252136 0.085052

vn 0.000000 0.442795 -0.896623
vn 0.000000 0.599717 -0.800212
vn 0.929798 0.057581 -0.363540
vn -0.929798 0.057581 -0.363540
vn -0.986063 -0.155480 0.059214
vn 0.000000 -0.881597 0.472003
vn 0.000000 -0.431262 0.902227
vn 0.986063 -0.155480 0.059214
vn 0.000000 0.223662 0.974667
vn 0.996105 0.088156 -0.001706
vn 0.000000 0.049365 -0.998781
vn -0.996105 0.088156 -0.001706

g polygon3
s 1
usemtl mat2
f 124/124/124 125/125/125 126/126/126
f 124/124/124 127/127/127 125/125/125
f 128/128/128 127/127/127 124/124/124
f 128/128/128 129/129/129 127/127/127
f 130/130/130 129/129/129 128/128/128
f 130/130/130 131/131/131 129/129/129
f 132/132/132 131/131/131 130/130/130
f 132/132/132 133/133/133 131/131/131
f 131/131/131 126/126/126 129/129/129
f 131/131/131 124/124/124 126/126/126
f 134/134/134 124/124/124 131/131/131
f 134/134/134 128/128/128 124/124/124
f 135/135/135 128/128/128 134/134/134
f 135/135/135 132/132/132 128/128/128
f 133/133/133 134/134/134 131/131/131
f 130/130/130 128/128/128 132/132/132

v 1.343750 4.112507 1.884094
v -1.343750 6.784382 1.884094
v -1.343750 4.112507 1.884094
v 1.343750 6.784382 1.884094

vt 1.000000 0.500000
vt 0.000000 1.000000
vt 0.000000 0.500000
vt 1.000000 1.000000

vn 0.000000 0.000000 1.000000
vn 0.000000 0.000000 1.000000
vn 0.000000 0.000000 1.000000
vn 0.000000 0.000000 1.000000

g polygon4
s 1
usemtl mat3
f 136/136/136 137/137/137 138/138/138
f 136/136/136 139/139/139 137/137/137

