mtllib WpnToonLinkBoomerang.mtl

v -0.387739 0.000000 3.382960
v -0.260020 0.000000 2.208437
v -0.253238 -0.501529 2.075063
v -0.373784 -0.846576 2.987705
v 0.000000 -1.056625 3.668792
v 0.387739 0.000000 3.382960
v 0.373784 -0.846576 2.987705
v 0.253238 -0.501529 2.075063
v 0.260020 0.000000 2.208437
v 0.000000 -0.406290 1.826603
v 0.000000 0.000000 1.879189
v 0.191624 -2.396585 0.799743
v 0.283826 -2.747557 1.462181
v 0.000000 -2.924808 1.889499
v -0.283827 -2.747557 1.462181
v -0.191624 -2.396585 0.799743
v 0.000000 -2.305956 0.625261
v -0.193869 -4.648538 -0.063343
v 0.000000 -4.856732 -0.721964
v 0.000000 -4.792992 0.110205
v -0.130010 -4.291640 -0.475578
v 0.000000 -4.205623 -0.576082
v 0.130010 -4.291640 -0.475578
v 0.193869 -4.648538 -0.063343
v 0.000000 0.000000 4.144836
v -0.253238 0.501529 2.075063
v 0.000000 1.056625 3.668792
v 0.253238 0.501529 2.075063
v 0.000000 0.406290 1.826603
v 0.283827 2.747557 1.462181
v 0.373784 0.846576 2.987705
v 0.000000 2.924808 1.889499
v -0.283826 2.747557 1.462181
v -0.191624 2.396585 0.799743
v 0.000000 2.305956 0.625261
v 0.191624 2.396585 0.799743
v -0.193869 4.648538 -0.063343
v 0.000000 4.792992 0.110205
v 0.000000 4.856732 -0.721964
v -0.130010 4.291640 -0.475578
v 0.000000 4.205623 -0.576082
v 0.130010 4.291640 -0.475578
v 0.193869 4.648538 -0.063343
v -0.373784 0.846576 2.987705

vt 0.990351 0.276309
vt 0.990351 0.675852
vt 0.792366 0.764441
vt 0.740594 0.347778
vt 0.674280 0.026236
vt 0.990351 0.276309
vt 0.740594 0.347778
vt 0.792366 0.764441
vt 0.990351 0.675852
vt 0.800269 0.970089
vt 0.990351 0.965947
vt 0.256682 0.808469
vt 0.282502 0.461762
vt 0.227812 0.153804
vt 0.282502 0.461762
vt 0.256682 0.808469
vt 0.306081 0.998695
vt 0.093702 0.497681
vt 0.008747 0.801148
vt 0.027511 0.111356
vt 0.185375 0.813111
vt 0.259749 0.987854
vt 0.185375 0.813111
vt 0.093702 0.497681
vt 0.990351 0.017053
vt 0.792366 0.764441
vt 0.674280 0.026236
vt 0.792366 0.764441
vt 0.800269 0.970089
vt 0.282502 0.461762
vt 0.740594 0.347778
vt 0.227812 0.153804
vt 0.282502 0.461762
vt 0.256682 0.808469
vt 0.306081 0.998695
vt 0.256682 0.808469
vt 0.093702 0.497681
vt 0.027511 0.111356
vt 0.008747 0.801148
vt 0.185375 0.813111
vt 0.259749 0.987854
vt 0.185375 0.813111
vt 0.093702 0.497681
vt 0.740594 0.347778

vn -0.985724 0.000000 0.168370
vn -0.872803 0.000000 -0.488073
vn -0.946511 0.119694 -0.299651
vn -0.981515 -0.122505 0.147041
vn 0.000000 -0.568443 0.822722
vn 0.985724 0.000000 0.168370
vn 0.981515 -0.122505 0.147041
vn 0.946511 0.119693 -0.299651
vn 0.872803 0.000000 -0.488073
vn 0.000000 0.373902 -0.927468
vn 0.000000 0.000000 -1.000000
vn 0.846809 0.277561 -0.453734
vn 0.984689 -0.136590 0.108305
vn 0.000000 -0.683308 0.730130
vn -0.984689 -0.136590 0.108305
vn -0.846809 0.277561 -0.453734
vn 0.000000 0.534487 -0.845177
vn -0.922103 -0.365580 0.126799
vn 0.000000 -0.621697 -0.783258
vn 0.000000 -0.917237 0.398341
vn -0.917899 0.109553 -0.381392
vn 0.000000 0.431225 -0.902244
vn 0.917899 0.109553 -0.381392
vn 0.922103 -0.365580 0.126799
vn 0.000000 0.000000 1.000000
vn -0.946511 -0.119694 -0.299651
vn 0.000000 0.568443 0.822722
vn 0.946511 -0.119693 -0.299651
vn 0.000000 -0.373902 -0.927468
vn 0.984689 0.136590 0.108305
vn 0.981515 0.122505 0.147041
vn 0.000000 0.683308 0.730130
vn -0.984689 0.136590 0.108305
vn -0.846809 -0.277561 -0.453734
vn 0.000000 -0.534487 -0.845177
vn 0.846809 -0.277561 -0.453734
vn -0.922103 0.365580 0.126799
vn 0.000000 0.917237 0.398341
vn 0.000000 0.621697 -0.783258
vn -0.917899 -0.109553 -0.381392
vn 0.000000 -0.431225 -0.902244
vn 0.917899 -0.109553 -0.381392
vn 0.922103 0.365580 0.126799
vn -0.981515 0.122505 0.147041

g polygon0
s 1
usemtl mat1
f 1/1/1 2/2/2 3/3/3
f 1/1/1 4/4/4 5/5/5
f 6/6/6 5/5/5 7/7/7
f 8/8/8 9/9/9 6/6/6
f 9/9/9 8/8/8 10/10/10
f 11/11/11 10/10/10 2/2/2
f 12/12/12 8/8/8 13/13/13
f 5/5/5 14/14/14 13/13/13
f 5/5/5 4/4/4 15/15/15
f 15/15/15 4/4/4 3/3/3
f 10/10/10 16/16/16 3/3/3
f 10/10/10 12/12/12 17/17/17
f 18/18/18 19/19/19 20/20/20
f 19/19/19 18/18/18 21/21/21
f 22/22/22 19/19/19 21/21/21
f 23/23/23 19/19/19 22/22/22
f 19/19/19 23/23/23 24/24/24
f 20/20/20 19/19/19 24/24/24
f 8/8/8 6/6/6 7/7/7
f 4/4/4 1/1/1 3/3/3
f 10/10/10 3/3/3 2/2/2
f 9/9/9 10/10/10 11/11/11
f 6/6/6 25/25/25 5/5/5
f 25/25/25 1/1/1 5/5/5
f 23/23/23 22/22/22 12/12/12
f 12/12/12 22/22/22 17/17/17
f 24/24/24 23/23/23 13/13/13
f 23/23/23 12/12/12 13/13/13
f 14/14/14 24/24/24 13/13/13
f 18/18/18 20/20/20 14/14/14
f 18/18/18 15/15/15 21/21/21
f 15/15/15 16/16/16 21/21/21
f 21/21/21 16/16/16 22/22/22
f 17/17/17 22/22/22 16/16/16
f 14/14/14 20/20/20 24/24/24
f 15/15/15 18/18/18 14/14/14
f 1/1/1 26/26/26 2/2/2
f 27/27/27 1/1/1 25/25/25
f 27/27/27 25/25/25 6/6/6
f 28/28/28 6/6/6 9/9/9
f 9/9/9 29/29/29 28/28/28
f 11/11/11 2/2/2 29/29/29
f 28/28/28 30/30/30 31/31/31
f 27/27/27 31/31/31 30/30/30
f 27/27/27 32/32/32 33/33/33
f 33/33/33 34/34/34 26/26/26
f 29/29/29 34/34/34 35/35/35
f 28/28/28 29/29/29 36/36/36
f 37/37/37 38/38/38 39/39/39
f 39/39/39 40/40/40 37/37/37
f 41/41/41 40/40/40 39/39/39
f 42/42/42 41/41/41 39/39/39
f 39/39/39 43/43/43 42/42/42
f 38/38/38 43/43/43 39/39/39
f 28/28/28 31/31/31 6/6/6
f 44/44/44 26/26/26 1/1/1
f 29/29/29 2/2/2 26/26/26
f 9/9/9 11/11/11 29/29/29
f 27/27/27 6/6/6 31/31/31
f 44/44/44 1/1/1 27/27/27
f 42/42/42 36/36/36 41/41/41
f 36/36/36 35/35/35 41/41/41
f 43/43/43 30/30/30 42/42/42
f 42/42/42 30/30/30 36/36/36
f 32/32/32 30/30/30 43/43/43
f 37/37/37 32/32/32 38/38/38
f 37/37/37 40/40/40 33/33/33
f 40/40/40 34/34/34 33/33/33
f 40/40/40 41/41/41 34/34/34
f 35/35/35 34/34/34 41/41/41
f 32/32/32 43/43/43 38/38/38
f 33/33/33 32/32/32 37/37/37
f 8/8/8 12/12/12 10/10/10
f 36/36/36 29/29/29 35/35/35
f 27/27/27 30/30/30 32/32/32
f 27/27/27 33/33/33 44/44/44
f 5/5/5 13/13/13 7/7/7
f 5/5/5 15/15/15 14/14/14
f 13/13/13 8/8/8 7/7/7
f 36/36/36 30/30/30 28/28/28
f 33/33/33 26/26/26 44/44/44
f 15/15/15 3/3/3 16/16/16
f 29/29/29 26/26/26 34/34/34
f 10/10/10 17/17/17 16/16/16

