mtllib WpnToonLinkBowArrow.mtl

v -0.846230 -0.488571 1.197057
v 0.000000 0.000000 2.671088
v 0.000000 0.000000 2.171298
v -0.448313 -0.258833 1.343552
v -0.284218 -0.164093 3.104445
v -0.637428 -0.368019 2.486225
v -0.199765 -0.115334 0.441061
v 0.000000 0.000000 1.629557
v 0.000000 0.000000 1.142413
v -0.793258 -0.457988 0.579022
v -0.614904 -0.355015 0.308333
v -0.320121 -0.184822 0.607640
v 0.000000 0.000000 3.543800
v -0.320884 -0.185262 3.358361
v -0.722032 -0.416865 1.925458
v -0.403559 -0.232995 2.425412
v -0.528968 -0.305400 2.917494
v 0.846230 -0.488571 1.197057
v 0.000000 0.000000 2.671088
v 0.000000 0.000000 2.171298
v 0.448313 -0.258833 1.343552
v 0.284218 -0.164093 3.104445
v 0.637428 -0.368019 2.486225
v 0.199765 -0.115334 0.441061
v 0.000000 0.000000 1.629557
v 0.000000 0.000000 1.142413
v 0.793258 -0.457988 0.579022
v 0.614904 -0.355015 0.308333
v 0.320121 -0.184822 0.607640
v 0.000000 0.000000 3.543800
v 0.320884 -0.185262 3.358361
v 0.722032 -0.416865 1.925458
v 0.403559 -0.232995 2.425412
v 0.528968 -0.305400 2.917494
v 0.000000 0.977142 1.197057
v 0.000000 0.000000 2.671088
v 0.000000 0.000000 2.171298
v 0.000000 0.517667 1.343552
v 0.000000 0.328186 3.104445
v 0.000000 0.736038 2.486225
v 0.000000 0.230669 0.441061
v 0.000000 0.000000 1.629557
v 0.000000 0.000000 1.142413
v 0.000000 0.915976 0.579022
v 0.000000 0.710030 0.308333
v 0.000000 0.369644 0.607640
v 0.000000 0.000000 3.543800
v 0.000000 0.370525 3.358361
v 0.000000 0.833731 1.925458
v 0.000000 0.465990 2.425412
v 0.000000 0.610800 2.917494
v -0.846230 -0.488571 1.197057
v 0.000000 0.000000 2.171298
v 0.000000 0.000000 2.671088
v -0.448313 -0.258833 1.343552
v -0.637428 -0.368019 2.486225
v -0.284218 -0.164093 3.104445
v -0.528968 -0.305400 2.917494
v -0.199765 -0.115334 0.441061
v 0.000000 0.000000 1.142413
v 0.000000 0.000000 1.629557
v -0.793258 -0.457988 0.579022
v -0.614904 -0.355015 0.308333
v -0.320121 -0.184822 0.607640
v 0.000000 0.000000 3.543800
v -0.403559 -0.232995 2.425412
v -0.722032 -0.416865 1.925458
v -0.320884 -0.185262 3.358361
v 0.846230 -0.488571 1.197057
v 0.000000 0.000000 2.171298
v 0.000000 0.000000 2.671088
v 0.448313 -0.258833 1.343552
v 0.637428 -0.368019 2.486225
v 0.284218 -0.164093 3.104445
v 0.528968 -0.305400 2.917494
v 0.199765 -0.115334 0.441061
v 0.000000 0.000000 1.142413
v 0.000000 0.000000 1.629557
v 0.793258 -0.457988 0.579022
v 0.614904 -0.355015 0.308333
v 0.320121 -0.184822 0.607640
v 0.000000 0.000000 3.543800
v 0.403559 -0.232995 2.425412
v 0.722032 -0.416865 1.925458
v 0.320884 -0.185262 3.358361
v 0.000000 0.977142 1.197057
v 0.000000 0.000000 2.171298
v 0.000000 0.000000 2.671088
v 0.000000 0.517667 1.343552
v 0.000000 0.736038 2.486225
v 0.000000 0.328186 3.104445
v 0.000000 0.610800 2.917494
v 0.000000 0.230669 0.441061
v 0.000000 0.000000 1.142413
v 0.000000 0.000000 1.629557
v 0.000000 0.915976 0.579022
v 0.000000 0.710030 0.308333
v 0.000000 0.369644 0.607640
v 0.000000 0.000000 3.543800
v 0.000000 0.465990 2.425412
v 0.000000 0.833731 1.925458
v 0.000000 0.370525 3.358361

vt 0.631714 0.317795
vt 0.472321 0.012284
vt 0.661449 0.010977
vt 0.678451 0.282055
vt 0.159845 0.278670
vt 0.319286 0.319488
vt 0.926573 0.155087
vt 0.780356 0.016319
vt 0.951484 0.021566
vt 0.744119 0.334618
vt 0.820635 0.332585
vt 0.903562 0.274017
vt 0.043685 0.156258
vt 0.036861 0.328778
vt 0.535957 0.326829
vt 0.441258 0.240713
vt 0.201749 0.321763
vt 0.631714 0.317795
vt 0.472321 0.012284
vt 0.661449 0.010977
vt 0.678451 0.282055
vt 0.159845 0.278670
vt 0.319286 0.319488
vt 0.926573 0.155087
vt 0.780356 0.016319
vt 0.951484 0.021566
vt 0.744119 0.334618
vt 0.820635 0.332585
vt 0.903562 0.274017
vt 0.043685 0.156258
vt 0.036861 0.328778
vt 0.535957 0.326829
vt 0.441258 0.240713
vt 0.201749 0.321763
vt 0.631714 0.317795
vt 0.472321 0.012284
vt 0.661449 0.010977
vt 0.678451 0.282055
vt 0.159845 0.278670
vt 0.319286 0.319488
vt 0.926573 0.155087
vt 0.780356 0.016319
vt 0.951484 0.021566
vt 0.744119 0.334618
vt 0.820635 0.332585
vt 0.903562 0.274017
vt 0.043685 0.156258
vt 0.036861 0.328778
vt 0.535957 0.326829
vt 0.441258 0.240713
vt 0.201749 0.321763
vt 0.631714 0.317795
vt 0.661449 0.010977
vt 0.472321 0.012284
vt 0.678451 0.282055
vt 0.319286 0.319488
vt 0.159845 0.278670
vt 0.201749 0.321763
vt 0.926573 0.155087
vt 0.951484 0.021566
vt 0.780356 0.016319
vt 0.744119 0.334618
vt 0.820635 0.332585
vt 0.903562 0.274017
vt 0.043685 0.156258
vt 0.441258 0.240713
vt 0.535957 0.326829
vt 0.036861 0.328778
vt 0.631714 0.317795
vt 0.661449 0.010977
vt 0.472321 0.012284
vt 0.678451 0.282055
vt 0.319286 0.319488
vt 0.159845 0.278670
vt 0.201749 0.321763
vt 0.926573 0.155087
vt 0.951484 0.021566
vt 0.780356 0.016319
vt 0.744119 0.334618
vt 0.820635 0.332585
vt 0.903562 0.274017
vt 0.043685 0.156258
vt 0.441258 0.240713
vt 0.535957 0.326829
vt 0.036861 0.328778
vt 0.631714 0.317795
vt 0.661449 0.010977
vt 0.472321 0.012284
vt 0.678451 0.282055
vt 0.319286 0.319488
vt 0.159845 0.278670
vt 0.201749 0.321763
vt 0.926573 0.155087
vt 0.951484 0.021566
vt 0.780356 0.016319
vt 0.744119 0.334618
vt 0.820635 0.332585
vt 0.903562 0.274017
vt 0.043685 0.156258
vt 0.441258 0.240713
vt 0.535957 0.326829
vt 0.036861 0.328778

vn -0.500000 0.866025 0.000000
vn -0.500000 0.866025 0.000000
vn -0.500000 0.866025 0.000000
vn -0.500000 0.866025 0.000000
vn -0.500000 0.866025 0.000000
vn -0.500000 0.866025 0.000000
vn -0.500000 0.866025 0.000000
vn -0.500000 0.866025 0.000000
vn -0.500000 0.866025 0.000000
vn -0.500000 0.866025 0.000000
vn -0.500000 0.866025 0.000000
vn -0.500000 0.866025 0.000000
vn -0.500000 0.866025 0.000000
vn -0.500000 0.866025 0.000000
vn -0.500000 0.866025 0.000000
vn -0.500000 0.866025 0.000000
vn -0.500000 0.866025 0.000000
vn -0.500000 -0.866025 0.000000
vn -0.500000 -0.866025 0.000000
vn -0.500000 -0.866025 0.000000
vn -0.500000 -0.866025 0.000000
vn -0.500000 -0.866025 0.000000
vn -0.500000 -0.866025 0.000000
vn -0.500000 -0.866025 0.000000
vn -0.500000 -0.866025 0.000000
vn -0.500000 -0.866025 0.000000
vn -0.500000 -0.866025 0.000000
vn -0.500000 -0.866025 0.000000
vn -0.500000 -0.866025 0.000000
vn -0.500000 -0.866025 0.000000
vn -0.500000 -0.866025 0.000000
vn -0.500000 -0.866025 0.000000
vn -0.500000 -0.866025 0.000000
vn -0.500000 -0.866025 0.000000
vn 1.000000 0.000000 0.000000
vn 1.000000 0.000000 0.000000
vn 1.000000 0.000000 0.000000
vn 1.000000 0.000000 0.000000
vn 1.000000 0.000000 0.000000
vn 1.000000 0.000000 0.000000
vn 1.000000 0.000000 0.000000
vn 1.000000 0.000000 0.000000
vn 1.000000 0.000000 0.000000
vn 1.000000 0.000000 0.000000
vn 1.000000 0.000000 0.000000
vn 1.000000 0.000000 0.000000
vn 1.000000 0.000000 0.000000
vn 1.000000 0.000000 0.000000
vn 1.000000 0.000000 0.000000
vn 1.000000 0.000000 0.000000
vn 1.000000 0.000000 0.000000
vn 0.500000 -0.866025 0.000000
vn 0.500000 -0.866025 0.000000
vn 0.500000 -0.866025 0.000000
vn 0.500000 -0.866025 0.000000
vn 0.500000 -0.866025 0.000000
vn 0.500000 -0.866025 0.000000
vn 0.500000 -0.866025 0.000000
vn 0.500000 -0.866025 0.000000
vn 0.500000 -0.866025 0.000000
vn 0.500000 -0.866025 0.000000
vn 0.500000 -0.866025 0.000000
vn 0.500000 -0.866025 0.000000
vn 0.500000 -0.866025 0.000000
vn 0.500000 -0.866025 0.000000
vn 0.500000 -0.866025 0.000000
vn 0.500000 -0.866025 0.000000
vn 0.500000 -0.866025 0.000000
vn 0.500000 0.866025 0.000000
vn 0.500000 0.866025 0.000000
vn 0.500000 0.866025 0.000000
vn 0.500000 0.866025 0.000000
vn 0.500000 0.866025 0.000000
vn 0.500000 0.866025 0.000000
vn 0.500000 0.866025 0.000000
vn 0.500000 0.866025 0.000000
vn 0.500000 0.866025 0.000000
vn 0.500000 0.866025 0.000000
vn 0.500000 0.866025 0.000000
vn 0.500000 0.866025 0.000000
vn 0.500000 0.866025 0.000000
vn 0.500000 0.866025 0.000000
vn 0.500000 0.866025 0.000000
vn 0.500000 0.866025 0.000000
vn 0.500000 0.866025 0.000000
vn -1.000000 0.000000 0.000000
vn -1.000000 0.000000 0.000000
vn -1.000000 0.000000 0.000000
vn -1.000000 0.000000 0.000000
vn -1.000000 0.000000 0.000000
vn -1.000000 0.000000 0.000000
vn -1.000000 0.000000 0.000000
vn -1.000000 0.000000 0.000000
vn -1.000000 0.000000 0.000000
vn -1.000000 0.000000 0.000000
vn -1.000000 0.000000 0.000000
vn -1.000000 0.000000 0.000000
vn -1.000000 0.000000 0.000000
vn -1.000000 0.000000 0.000000
vn -1.000000 0.000000 0.000000
vn -1.000000 0.000000 0.000000
vn -1.000000 0.000000 0.000000

g polygon0
s 1
usemtl mat1
f 1/1/1 2/2/2 3/3/3
f 1/1/1 3/3/3 4/4/4
f 5/5/5 2/2/2 6/6/6
f 7/7/7 8/8/8 9/9/9
f 3/3/3 8/8/8 4/4/4
f 4/4/4 8/8/8 10/10/10
f 10/10/10 8/8/8 11/11/11
f 11/11/11 8/8/8 12/12/12
f 13/13/13 5/5/5 14/14/14
f 2/2/2 15/15/15 16/16/16
f 13/13/13 2/2/2 5/5/5
f 5/5/5 6/6/6 17/17/17
f 12/12/12 8/8/8 7/7/7
f 2/2/2 16/16/16 6/6/6
f 1/1/1 15/15/15 2/2/2
f 18/18/18 19/19/19 20/20/20
f 18/18/18 20/20/20 21/21/21
f 22/22/22 19/19/19 23/23/23
f 24/24/24 25/25/25 26/26/26
f 20/20/20 25/25/25 21/21/21
f 21/21/21 25/25/25 27/27/27
f 27/27/27 25/25/25 28/28/28
f 28/28/28 25/25/25 29/29/29
f 30/30/30 22/22/22 31/31/31
f 19/19/19 32/32/32 33/33/33
f 30/30/30 19/19/19 22/22/22
f 22/22/22 23/23/23 34/34/34
f 29/29/29 25/25/25 24/24/24
f 19/19/19 33/33/33 23/23/23
f 18/18/18 32/32/32 19/19/19
f 35/35/35 36/36/36 37/37/37
f 35/35/35 37/37/37 38/38/38
f 39/39/39 36/36/36 40/40/40
f 41/41/41 42/42/42 43/43/43
f 37/37/37 42/42/42 38/38/38
f 38/38/38 42/42/42 44/44/44
f 44/44/44 42/42/42 45/45/45
f 45/45/45 42/42/42 46/46/46
f 47/47/47 39/39/39 48/48/48
f 36/36/36 49/49/49 50/50/50
f 47/47/47 36/36/36 39/39/39
f 39/39/39 40/40/40 51/51/51
f 46/46/46 42/42/42 41/41/41
f 36/36/36 50/50/50 40/40/40
f 35/35/35 49/49/49 36/36/36
f 52/52/52 53/53/53 54/54/54
f 52/52/52 55/55/55 53/53/53
f 56/56/56 57/57/57 58/58/58
f 59/59/59 60/60/60 61/61/61
f 53/53/53 55/55/55 61/61/61
f 55/55/55 62/62/62 61/61/61
f 62/62/62 63/63/63 61/61/61
f 63/63/63 64/64/64 61/61/61
f 57/57/57 54/54/54 65/65/65
f 54/54/54 66/66/66 67/67/67
f 57/57/57 65/65/65 68/68/68
f 56/56/56 54/54/54 57/57/57
f 64/64/64 59/59/59 61/61/61
f 54/54/54 56/56/56 66/66/66
f 52/52/52 54/54/54 67/67/67
f 69/69/69 70/70/70 71/71/71
f 69/69/69 72/72/72 70/70/70
f 73/73/73 74/74/74 75/75/75
f 76/76/76 77/77/77 78/78/78
f 70/70/70 72/72/72 78/78/78
f 72/72/72 79/79/79 78/78/78
f 79/79/79 80/80/80 78/78/78
f 80/80/80 81/81/81 78/78/78
f 74/74/74 71/71/71 82/82/82
f 71/71/71 83/83/83 84/84/84
f 74/74/74 82/82/82 85/85/85
f 73/73/73 71/71/71 74/74/74
f 81/81/81 76/76/76 78/78/78
f 71/71/71 73/73/73 83/83/83
f 69/69/69 71/71/71 84/84/84
f 86/86/86 87/87/87 88/88/88
f 86/86/86 89/89/89 87/87/87
f 90/90/90 91/91/91 92/92/92
f 93/93/93 94/94/94 95/95/95
f 87/87/87 89/89/89 95/95/95
f 89/89/89 96/96/96 95/95/95
f 96/96/96 97/97/97 95/95/95
f 97/97/97 98/98/98 95/95/95
f 91/91/91 88/88/88 99/99/99
f 88/88/88 100/100/100 101/101/101
f 91/91/91 99/99/99 102/102/102
f 90/90/90 88/88/88 91/91/91
f 98/98/98 93/93/93 95/95/95
f 88/88/88 90/90/90 100/100/100
f 86/86/86 88/88/88 101/101/101

v 0.000000 0.150480 8.359982
v 0.000000 0.150480 1.591287
v -0.150480 0.000000 1.591287
v -0.150480 0.000000 8.359982
v 0.150480 0.000000 8.359982
v 0.150480 0.000000 1.591287
v 0.000000 0.096334 -0.018228
v -0.096334 0.000000 0.088977
v 0.096334 0.000000 0.088977
v 0.000000 -0.150480 1.591287
v 0.000000 -0.150480 8.359982
v 0.000000 -0.096334 -0.018228
v 0.000000 -0.096334 -0.018228
v -0.096334 0.000000 0.088977
v 0.096334 0.000000 0.088977
v 0.000000 0.096334 -0.018228

vt 0.024159 0.426444
vt 0.535675 0.426444
vt 0.535675 0.391520
vt 0.024159 0.391520
vt 0.024159 0.391520
vt 0.535675 0.391520
vt 0.983773 0.429322
vt 0.983773 0.391520
vt 0.983773 0.391520
vt 0.520821 0.352545
vt 0.024159 0.356596
vt 0.983773 0.353717
vt 0.983773 0.353717
vt 0.983773 0.391520
vt 0.983773 0.391520
vt 0.983773 0.429322

vn 0.000000 1.000000 0.000000
vn 0.000000 0.999848 -0.017461
vn -0.999850 0.000000 -0.017329
vn -1.000000 0.000000 0.000000
vn 1.000000 0.000000 0.000000
vn 0.999850 0.000000 -0.017329
vn 0.000000 0.999386 -0.035044
vn -0.999404 0.000000 -0.034519
vn 0.999404 0.000000 -0.034519
vn 0.000000 -0.999848 -0.017461
vn 0.000000 -1.000000 0.000000
vn 0.000000 -0.999386 -0.035044
vn 0.000000 0.743814 -0.668387
vn 0.000000 0.000000 -1.000000
vn 0.000000 0.000000 -1.000000
vn 0.000000 -0.743814 -0.668387

g polygon1
s 1
usemtl mat1
f 103/103/103 104/104/104 105/105/105
f 106/106/106 103/103/103 105/105/105
f 107/107/107 108/108/108 104/104/104
f 103/103/103 107/107/107 104/104/104
f 109/109/109 110/110/110 105/105/105
f 104/104/104 109/109/109 105/105/105
f 111/111/111 109/109/109 104/104/104
f 108/108/108 111/111/111 104/104/104
f 105/105/105 112/112/112 113/113/113
f 106/106/106 105/105/105 113/113/113
f 112/112/112 108/108/108 107/107/107
f 113/113/113 112/112/112 107/107/107
f 105/105/105 110/110/110 114/114/114
f 112/112/112 105/105/105 114/114/114
f 112/112/112 114/114/114 111/111/111
f 108/108/108 112/112/112 111/111/111
f 115/115/115 116/116/116 117/117/117
f 117/117/117 116/116/116 118/118/118

v -0.253355 0.000000 9.141603
v 0.000000 0.225111 9.141603
v -0.150480 0.000000 8.359982
v 0.000000 0.150480 8.359982
v 0.253355 0.000000 9.141603
v 0.150480 0.000000 8.359982
v 0.271895 0.000000 9.852251
v 0.155542 0.170371 9.852251
v -0.155542 0.170372 9.852251
v -0.271895 0.000000 9.852251
v -0.243240 0.000000 10.444389
v 0.243240 0.000000 10.444389
v 0.000000 -0.225111 9.141603
v 0.000000 -0.150480 8.359982
v 0.155542 -0.170371 9.852251
v -0.155542 -0.170371 9.852251

vt 0.725823 0.603055
vt 0.857542 0.604762
vt 0.725723 0.442872
vt 0.872362 0.442872
vt 0.725823 0.603055
vt 0.725723 0.442872
vt 0.730794 0.763494
vt 0.826007 0.773587
vt 0.826007 0.773587
vt 0.730794 0.763494
vt 0.771129 0.986982
vt 0.771129 0.986982
vt 0.854659 0.604762
vt 0.869478 0.442872
vt 0.823123 0.773587
vt 0.823123 0.773587

vn -0.995863 0.000000 -0.090871
vn 0.000000 0.993981 -0.109553
vn -0.993679 0.000000 -0.112257
vn 0.000000 0.995472 -0.095050
vn 0.995863 0.000000 -0.090871
vn 0.993679 0.000000 -0.112257
vn 0.999938 0.000000 0.011140
vn 0.777020 0.629047 -0.023209
vn -0.777021 0.629047 -0.023209
vn -0.999938 0.000000 0.011140
vn -0.998831 0.000000 0.048335
vn 0.998831 0.000000 0.048335
vn 0.000000 -0.993981 -0.109553
vn 0.000000 -0.995472 -0.095050
vn 0.777021 -0.629047 -0.023209
vn -0.777021 -0.629047 -0.023209

g polygon2
s 1
usemtl mat1
f 119/119/119 120/120/120 121/121/121
f 122/122/122 121/121/121 120/120/120
f 123/123/123 124/124/124 120/120/120
f 124/124/124 122/122/122 120/120/120
f 125/125/125 123/123/123 126/126/126
f 126/126/126 123/123/123 120/120/120
f 127/127/127 128/128/128 129/129/129
f 125/125/125 126/126/126 130/130/130
f 128/128/128 127/127/127 119/119/119
f 127/127/127 120/120/120 119/119/119
f 119/119/119 121/121/121 131/131/131
f 132/132/132 131/131/131 121/121/121
f 123/123/123 131/131/131 124/124/124
f 124/124/124 131/131/131 132/132/132
f 125/125/125 133/133/133 123/123/123
f 133/133/133 131/131/131 123/123/123
f 134/134/134 129/129/129 128/128/128
f 125/125/125 130/130/130 133/133/133
f 128/128/128 119/119/119 134/134/134
f 119/119/119 131/131/131 134/134/134

v 0.000000 0.564625 9.739849
v 0.000000 0.225111 9.141603
v -0.097564 0.326285 9.744172
v 0.097564 0.326285 9.744172
v 0.000000 0.225111 9.141603
v 0.000000 0.564625 9.739849
v 0.155542 0.170371 9.852251
v -0.155542 0.170372 9.852251
v 0.000000 -0.564625 9.739849
v -0.097564 -0.326285 9.744172
v 0.000000 -0.225111 9.141603
v 0.097564 -0.326285 9.744172
v 0.000000 -0.564625 9.739849
v 0.000000 -0.225111 9.141603
v 0.155542 -0.170371 9.852251
v -0.155542 -0.170371 9.852251

vt 0.603206 0.959609
vt 0.609720 0.697888
vt 0.463479 0.955643
vt 0.463479 0.955643
vt 0.609720 0.697888
vt 0.603206 0.959609
vt 0.259623 0.948383
vt 0.259623 0.948383
vt 0.603206 0.959609
vt 0.463479 0.955643
vt 0.609720 0.697888
vt 0.463479 0.955643
vt 0.603206 0.959609
vt 0.609720 0.697888
vt 0.259623 0.948383
vt 0.259623 0.948383

vn -0.906457 0.367275 -0.208434
vn -0.933938 0.295662 -0.200860
vn -0.933938 0.295662 -0.200860
vn 0.933938 0.295662 -0.200859
vn 0.933938 0.295662 -0.200859
vn 0.906457 0.367274 -0.208434
vn 0.955870 0.222292 -0.192091
vn -0.955870 0.222292 -0.192091
vn -0.906457 -0.367275 -0.208434
vn -0.933938 -0.295662 -0.200859
vn -0.933938 -0.295662 -0.200859
vn 0.933938 -0.295662 -0.200859
vn 0.906457 -0.367274 -0.208434
vn 0.933938 -0.295662 -0.200859
vn 0.955870 -0.222292 -0.192091
vn -0.955870 -0.222292 -0.192091

g polygon3
s 1
usemtl mat1
f 135/135/135 136/136/136 137/137/137
f 138/138/138 139/139/139 140/140/140
f 141/141/141 139/139/139 138/138/138
f 137/137/137 136/136/136 142/142/142
f 143/143/143 144/144/144 145/145/145
f 146/146/146 147/147/147 148/148/148
f 149/149/149 146/146/146 148/148/148
f 144/144/144 150/150/150 145/145/145

v 0.000000 0.382206 10.854236
v 0.000001 0.000000 11.884822
v 0.243240 0.000000 10.444389
v 0.000001 0.000000 11.884822
v 0.000000 0.382206 10.854236
v -0.243240 0.000000 10.444389
v 0.000000 0.642922 10.560499
v 0.000000 0.807977 9.996405
v -0.054575 0.731320 10.161911
v 0.000000 1.153623 10.321455
v 0.054575 0.731320 10.161911
v 0.000000 0.807977 9.996405
v 0.000000 1.153623 10.321455
v 0.000000 0.642922 10.560499
v 0.155542 0.170371 9.852251
v 0.126878 0.316475 10.167334
v -0.105709 0.552790 10.275711
v 0.105709 0.552790 10.275711
v -0.155542 0.170372 9.852251
v -0.126878 0.316476 10.167334
v 0.000000 -0.382206 10.854236
v 0.000000 -0.382206 10.854236
v 0.000000 -0.642922 10.560499
v 0.000000 -0.807977 9.996405
v 0.000000 -1.153623 10.321455
v -0.054575 -0.731320 10.161911
v 0.054575 -0.731320 10.161911
v 0.000000 -1.153623 10.321455
v 0.000000 -0.807977 9.996405
v 0.000000 -0.642922 10.560499
v 0.155542 -0.170371 9.852251
v 0.126878 -0.316475 10.167334
v -0.105709 -0.552790 10.275711
v 0.105709 -0.552790 10.275711
v -0.155542 -0.170371 9.852251
v -0.126878 -0.316476 10.167334

vt 0.235311 0.840045
vt 0.034148 0.990538
vt 0.031063 0.607171
vt 0.034148 0.990538
vt 0.235311 0.840045
vt 0.031063 0.607171
vt 0.426116 0.731768
vt 0.598564 0.503732
vt 0.465794 0.535396
vt 0.621532 0.581335
vt 0.465794 0.535396
vt 0.598564 0.503732
vt 0.621532 0.581335
vt 0.426116 0.731768
vt 0.005439 0.459142
vt 0.172594 0.503743
vt 0.318210 0.554654
vt 0.318210 0.554654
vt 0.005439 0.459142
vt 0.172594 0.503743
vt 0.223240 0.840045
vt 0.223240 0.840045
vt 0.414044 0.731768
vt 0.586493 0.503732
vt 0.621532 0.581335
vt 0.453722 0.535396
vt 0.453722 0.535396
vt 0.621532 0.581335
vt 0.586493 0.503732
vt 0.414044 0.731768
vt 0.003610 0.459143
vt 0.160522 0.503743
vt 0.306139 0.554654
vt 0.306139 0.554654
vt 0.003610 0.459143
vt 0.160522 0.503743

vn 0.910999 0.355373 0.209264
vn 0.986040 0.000000 0.166508
vn 0.996441 0.000000 0.084298
vn -0.986040 0.000000 0.166510
vn -0.910999 0.355372 0.209264
vn -0.996441 0.000000 0.084299
vn -0.885512 0.266257 0.380757
vn -0.953714 0.206011 -0.219065
vn -0.963354 0.194342 -0.184881
vn -0.977547 0.210057 -0.016668
vn 0.963354 0.194342 -0.184881
vn 0.953714 0.206011 -0.219065
vn 0.977547 0.210057 -0.016669
vn 0.885512 0.266257 0.380757
vn 0.951550 0.302748 -0.053822
vn 0.961886 0.241691 -0.127907
vn -0.967014 0.181605 -0.178618
vn 0.967014 0.181605 -0.178618
vn -0.951549 0.302749 -0.053822
vn -0.961886 0.241691 -0.127908
vn 0.910999 -0.355373 0.209263
vn -0.910999 -0.355373 0.209265
vn -0.885512 -0.266257 0.380757
vn -0.953714 -0.206011 -0.219065
vn -0.977547 -0.210057 -0.016669
vn -0.963353 -0.194343 -0.184881
vn 0.963354 -0.194342 -0.184881
vn 0.977547 -0.210057 -0.016669
vn 0.953714 -0.206011 -0.219065
vn 0.885512 -0.266257 0.380757
vn 0.951550 -0.302748 -0.053822
vn 0.961886 -0.241691 -0.127908
vn -0.967013 -0.181606 -0.178619
vn 0.967013 -0.181606 -0.178619
vn -0.951550 -0.302748 -0.053822
vn -0.961886 -0.241692 -0.127908

g polygon4
s 1
usemtl mat1
f 151/151/151 152/152/152 153/153/153
f 154/154/154 155/155/155 156/156/156
f 157/157/157 156/156/156 155/155/155
f 158/158/158 159/159/159 160/160/160
f 161/161/161 162/162/162 163/163/163
f 153/153/153 164/164/164 151/151/151
f 165/165/165 166/166/166 153/153/153
f 159/159/159 167/167/167 160/160/160
f 168/168/168 153/153/153 166/166/166
f 169/169/169 156/156/156 170/170/170
f 156/156/156 167/167/167 170/170/170
f 153/153/153 168/168/168 163/163/163
f 163/163/163 168/168/168 161/161/161
f 157/157/157 160/160/160 156/156/156
f 164/164/164 153/153/153 163/163/163
f 160/160/160 167/167/167 156/156/156
f 171/171/171 153/153/153 152/152/152
f 154/154/154 156/156/156 172/172/172
f 173/173/173 172/172/172 156/156/156
f 174/174/174 175/175/175 176/176/176
f 177/177/177 178/178/178 179/179/179
f 153/153/153 171/171/171 180/180/180
f 181/181/181 153/153/153 182/182/182
f 176/176/176 175/175/175 183/183/183
f 184/184/184 182/182/182 153/153/153
f 185/185/185 186/186/186 156/156/156
f 156/156/156 186/186/186 183/183/183
f 153/153/153 178/178/178 184/184/184
f 178/178/178 177/177/177 184/184/184
f 173/173/173 156/156/156 175/175/175
f 180/180/180 178/178/178 153/153/153
f 175/175/175 156/156/156 183/183/183

v 0.105709 0.552790 10.275711
v -0.105709 0.552790 10.275711
v -0.054575 0.731320 10.161911
v 0.054575 0.731320 10.161911
v 0.126878 0.316475 10.167334
v -0.126878 0.316476 10.167334
v 0.155542 0.170371 9.852251
v -0.155542 0.170372 9.852251
v -0.155542 0.170372 9.852251
v 0.155542 0.170371 9.852251
v 0.097564 0.326285 9.744172
v -0.097564 0.326285 9.744172
v -0.054575 -0.731320 10.161911
v -0.105709 -0.552790 10.275711
v 0.105709 -0.552790 10.275711
v 0.054575 -0.731320 10.161911
v -0.126878 -0.316476 10.167334
v 0.126878 -0.316475 10.167334
v -0.155542 -0.170371 9.852251
v 0.155542 -0.170371 9.852251
v 0.097564 -0.326285 9.744172
v 0.155542 -0.170371 9.852251
v -0.155542 -0.170371 9.852251
v -0.097564 -0.326285 9.744172
v 0.000000 0.807977 9.996405
v 0.000000 0.564625 9.739849
v 0.000000 -0.807977 9.996405
v 0.000000 -0.564625 9.739849

vt 0.978800 0.656098
vt 0.945974 0.656098
vt 0.952294 0.821065
vt 0.972479 0.821065
vt 0.980104 0.550687
vt 0.944669 0.550687
vt 0.981503 0.442591
vt 0.943270 0.442591
vt 0.945432 0.648384
vt 0.977975 0.648384
vt 0.969839 0.816173
vt 0.953567 0.816174
vt 0.952294 0.821065
vt 0.945974 0.656098
vt 0.978800 0.656098
vt 0.972479 0.821065
vt 0.944669 0.550687
vt 0.980104 0.550687
vt 0.943270 0.442591
vt 0.981503 0.442591
vt 0.969839 0.816173
vt 0.977975 0.648384
vt 0.945432 0.648384
vt 0.953567 0.816174
vt 0.962387 0.956850
vt 0.961703 0.961711
vt 0.962387 0.956850
vt 0.961703 0.961711

vn 0.000000 -0.068691 -0.997638
vn 0.000000 -0.068691 -0.997638
vn 0.000000 -0.752775 -0.658278
vn 0.000000 -0.752775 -0.658278
vn 0.000000 0.705622 -0.708588
vn 0.000000 0.705622 -0.708588
vn 0.000000 0.965032 0.262131
vn 0.000000 0.965032 0.262131
vn 0.000000 0.965032 0.262131
vn 0.000000 0.965032 0.262131
vn 0.000003 0.307097 0.951678
vn 0.000003 0.307097 0.951678
vn 0.000000 0.752775 -0.658278
vn 0.000000 0.068691 -0.997638
vn 0.000000 0.068691 -0.997638
vn 0.000000 0.752775 -0.658278
vn 0.000000 -0.705622 -0.708588
vn 0.000000 -0.705622 -0.708588
vn 0.000001 -0.965032 0.262131
vn 0.000001 -0.965032 0.262131
vn 0.000000 -0.307097 0.951678
vn 0.000001 -0.965032 0.262131
vn 0.000001 -0.965032 0.262131
vn 0.000000 -0.307097 0.951678
vn 0.000000 -0.907397 -0.420275
vn 0.000004 0.018135 0.999836
vn 0.000000 0.907397 -0.420275
vn -0.000001 -0.018135 0.999836

g polygon5
s 1
usemtl mat1
f 187/187/187 188/188/188 189/189/189
f 190/190/190 187/187/187 189/189/189
f 191/191/191 192/192/192 188/188/188
f 187/187/187 191/191/191 188/188/188
f 193/193/193 194/194/194 192/192/192
f 191/191/191 193/193/193 192/192/192
f 195/195/195 196/196/196 197/197/197
f 198/198/198 195/195/195 197/197/197
f 199/199/199 200/200/200 201/201/201
f 202/202/202 199/199/199 201/201/201
f 200/200/200 203/203/203 204/204/204
f 201/201/201 200/200/200 204/204/204
f 203/203/203 205/205/205 206/206/206
f 204/204/204 203/203/203 206/206/206
f 207/207/207 208/208/208 209/209/209
f 210/210/210 207/207/207 209/209/209
f 211/211/211 190/190/190 189/189/189
f 212/212/212 198/198/198 197/197/197
f 213/213/213 199/199/199 202/202/202
f 214/214/214 207/207/207 210/210/210

